inDegrees=no
num_controls=7
num_derivatives=13
num_iterations=166
num_multipliers=7
num_parameters=0
num_slacks=7
num_states=26
objective=5.643963
objective_accelerations=0.882393
objective_balance=0.021306
objective_effort=0.197996
objective_height=4.424489
objective_ligament=0.117779
solver_duration=1882.634353
status=Solve_Succeeded
success=true
DataType=double
version=3
OpenSimVersion=4.4-2022-07-23-0e9fedc
endheader
time	/jointset/ground_pelvis/pelvis_tilt/value	/jointset/ground_pelvis/pelvis_tx/value	/jointset/ground_pelvis/pelvis_ty/value	/jointset/hip_l/hip_flexion_l/value	/jointset/hip_l/hip_adduction_l/value	/jointset/hip_l/hip_rotation_l/value	/jointset/back/lumbar_extension/value	/jointset/patellofemoral_l/patellar_flexion_l/value	/jointset/knee_l/knee_flexion_l/value	/jointset/knee_l/knee_adduction_l/value	/jointset/knee_l/knee_rotation_l/value	/jointset/ankle_l/ankle_angle_l/value	/jointset/subtalar_l/subtalar_angle_l/value	/jointset/ground_pelvis/pelvis_tilt/speed	/jointset/ground_pelvis/pelvis_tx/speed	/jointset/ground_pelvis/pelvis_ty/speed	/jointset/hip_l/hip_flexion_l/speed	/jointset/hip_l/hip_adduction_l/speed	/jointset/hip_l/hip_rotation_l/speed	/jointset/back/lumbar_extension/speed	/jointset/patellofemoral_l/patellar_flexion_l/speed	/jointset/knee_l/knee_flexion_l/speed	/jointset/knee_l/knee_adduction_l/speed	/jointset/knee_l/knee_rotation_l/speed	/jointset/ankle_l/ankle_angle_l/speed	/jointset/subtalar_l/subtalar_angle_l/speed	/forceset/tau_hip_flexion_l	/forceset/tau_hip_adduction_l	/forceset/tau_hip_rotation_l	/forceset/tau_knee_flexion_l	/forceset/tau_ankle_angle_l	/forceset/tau_subtalar_angle_l	/forceset/tau_lumbar_extension	lambda_cid13_p0	lambda_cid13_p1	lambda_cid13_p2	lambda_cid13_p3	lambda_cid13_p4	lambda_cid13_p5	lambda_cid14_p0	/jointset/ground_pelvis/pelvis_tilt/accel	/jointset/ground_pelvis/pelvis_tx/accel	/jointset/ground_pelvis/pelvis_ty/accel	/jointset/hip_l/hip_flexion_l/accel	/jointset/hip_l/hip_adduction_l/accel	/jointset/hip_l/hip_rotation_l/accel	/jointset/back/lumbar_extension/accel	/jointset/patellofemoral_l/patellar_flexion_l/accel	/jointset/knee_l/knee_flexion_l/accel	/jointset/knee_l/knee_adduction_l/accel	/jointset/knee_l/knee_rotation_l/accel	/jointset/ankle_l/ankle_angle_l/accel	/jointset/subtalar_l/subtalar_angle_l/accel	gamma_cid13_p0	gamma_cid13_p1	gamma_cid13_p2	gamma_cid13_p3	gamma_cid13_p4	gamma_cid13_p5	gamma_cid14_p0
1	-0.4958624023706992	-0.01404411560453496	0.5445155234927327	1.877773847897936	-0.3373713253534005	0.1591527515190449	-0.4363321502880896	1.631016773354256	1.631016773354232	0.09399400762704335	-0.1745327159080714	0.4346493922857133	0.2637967925284623	-0.1508525470186055	-0.005935032630004371	0.03515294916732727	0.03236772454372402	-0.0005434379473454562	-0.06096800367418231	-2.504931725122675e-07	-0.1579096239552259	-0.1579096239552059	-0.003819851920712473	5.114167591036128e-07	-0.05383064730700756	-0.03464057747138785	-0.2677724951080029	0.02675689293644285	-0.02075108273783954	-0.2962146794296668	-0.0455632204754557	0.01291920689669072	0.2252537462664758	-47.74360687961512	8.10336667514299	-7.689170811704861	11.41720666075877	-553.9766514683722	-70.53329807226145	-0.02312966305290286	1.538348070471645	0.07130049132866031	2.283248210187654	-7.268523839531099	-0.2933302331110789	-1.794438902202007	-0.0180821848097503	-6.057243330309678	-6.057243330310055	-0.895277346154844	-0.03758502538502965	-0.8618235560617622	-1.00342909575372	-1.030554283408567e-09	-1.706679109881099e-07	-7.925599080404906e-08	-1.871368049406814e-08	-1.090386362125859e-08	-2.582634037691969e-07	8.951287048230627e-09
1.01	-0.4972946932311321	-0.01409985368371136	0.5449810008466048	1.877735087543873	-0.337390572296054	0.1584558486439581	-0.4363321576250839	1.629135264598665	1.629135264598754	0.09390971065058172	-0.174532704226819	0.4340680624117895	0.2634016841445487	-0.1355936281592437	-0.00520129495728466	0.05793219667483605	-0.04010706587315581	-0.003298607624932617	-0.07840220566408458	-9.368182075621721e-07	-0.2183812126183685	-0.2183812126183531	-0.01303016583145518	1.832393312413235e-06	-0.06244465092518235	-0.04436782393094746	-0.2680953541549688	0.02677672789088574	-0.02076866593011233	-0.2953843290374921	-0.04557874234703813	0.01296621365032832	0.2254077639952054	-47.70407985218309	8.047214535989143	-7.647303778959988	11.21212157540383	-553.7568607930131	-70.40168731514252	-0.0231450057090476	1.521463650091985	0.07609735981167585	2.273710772082573	-7.23504702262025	-0.2654930142095138	-1.716364444164351	0.008980156633374941	-6.040481764679036	-6.040481764679503	-0.932513266920496	0.01895344584105163	-0.8625973542507184	-0.9553320755344338	-5.991578614304317e-10	-2.219193750590043e-07	-1.154224412588201e-07	-3.128602006230545e-08	-1.747920108366451e-08	-3.288762347919826e-07	1.153435625919026e-08
1.02	-0.4985740349316855	-0.014147916995247	0.5456739602257608	1.876971961209676	-0.3374371474713077	0.1575849130296169	-0.4363321634227544	1.626649366930369	1.626649366930567	0.09373358956431525	-0.1745326867784623	0.4334003107837726	0.2629097113651441	-0.1202627150429425	-0.004400079101854686	0.08064935422431115	-0.1125054714841968	-0.006009084467600507	-0.09577455152518606	5.737610203066301e-08	-0.2787874064960128	-0.2787874064960005	-0.02218467387765927	1.664836487514165e-06	-0.07111499812556892	-0.05401345656959963	-0.268418213201902	0.0267965628453355	-0.02078624912243917	-0.2945539786453221	-0.04559426421862522	0.01301322040397548	0.225561781723973	-47.66797416385481	7.990793795517532	-7.604402462142529	11.01147080933385	-553.6324327178373	-70.25978759123029	-0.02316286451781898	1.552746921859553	0.08479612787070298	2.270830218580915	-7.25324687836333	-0.2843916661272151	-1.782067676441835	-0.0177460809409876	-6.04416437321003	-6.044164373210076	-0.8841161732471228	-0.03788273206065797	-0.8730922725041315	-0.987106331572227	-1.638274490890492e-10	-2.703276513066548e-07	-1.484882438878223e-07	-4.346805738328935e-08	-2.366665160470206e-08	-3.915278115939973e-07	1.339568432951084e-08
1.03	-0.4996996970441593	-0.01418757600425969	0.5465936782147833	1.87548546827637	-0.3375105560375083	0.1565405832633381	-0.4363321315278927	1.623559875115615	1.62355987511567	0.09346631445323082	-0.1745326737955824	0.4326454960178707	0.2623217411595947	-0.1048570318326233	-0.003514985040286496	0.1032737305521702	-0.184757173884549	-0.00866041418335237	-0.1130727350574895	8.751451049019354e-06	-0.3390859601059489	-0.3390859601059419	-0.03125647512018616	1.829444600195915e-06	-0.07986471127808652	-0.06356176003199707	-0.2684152949741296	0.02677229755089055	-0.02075956277585165	-0.2936187799095399	-0.04538030434063226	0.01314302046629559	0.2255134855232289	-47.52048741117808	7.868374769319566	-7.538941373817546	10.7012848215304	-553.1729905690211	-70.19364321380048	-0.02318662927127252	1.536379847226408	0.09286549129910801	2.255158378186649	-7.205741439807112	-0.2536449820632121	-1.700906577921259	0.01054162895362012	-6.018954463733355	-6.018954463734121	-0.9166488452988297	0.01904299136756842	-0.8784385731433511	-0.9357962013278892	2.71543106011142e-10	-3.1870691543366e-07	-1.815224072532962e-07	-5.564611202828087e-08	-2.985014409572565e-08	-4.540981511080448e-07	1.524964769431469e-08
1.04	-0.5006709221592101	-0.01421788418345687	0.5477390233747432	1.873277536415272	-0.3376101061724197	0.1553238290844785	-0.4363319397968464	1.619868147042993	1.619868147042906	0.0931087339805852	-0.1745326437797962	0.4318026785731393	0.2616388671498704	-0.0893753155579719	-0.002529913138753767	0.1257747884119263	-0.2567932570423445	-0.01123739820966748	-0.1302594340416577	3.202461563429452e-05	-0.3992346580698056	-0.399234658069804	-0.04024574618444789	5.071417526780322e-06	-0.08871553389131258	-0.07299421740456866	-0.2684123767463624	0.02674803225645286	-0.02073287642934029	-0.2926835811737614	-0.0451663444626371	0.01327282052863071	0.2254651893224819	-47.37672941047476	7.745821999409573	-7.47256007214471	10.39619801135676	-552.8099095592696	-70.11808242891769	-0.02321277461403113	1.567953534726004	0.1047916958635998	2.246166524960338	-7.210123029852001	-0.2695225282398491	-1.759770766814752	-0.01483026301374625	-6.01419324399415	-6.014193243994219	-0.8676101375940867	-0.03726725909785358	-0.893314164645836	-0.9639371136070471	2.77055206648944e-10	-3.634868173193604e-07	-2.109247692458251e-07	-6.594566673185839e-08	-3.588330291287751e-08	-5.078795951206732e-07	1.650701788589096e-08
1.05	-0.5014868463233217	-0.01423778216898398	0.549108683487188	1.870350411342827	-0.3377350336005685	0.1539357548491106	-0.4363315210249999	1.615575788510013	1.615575788509884	0.09266177330436165	-0.1745326001171482	0.430870787643413	0.2608622650356969	-0.07378747815759329	-0.001427106484147599	0.1481288742211161	-0.3285870215191377	-0.013732728736456	-0.1473298982319949	4.710025148788517e-05	-0.459201342395737	-0.4592013423957307	-0.04912999932006745	3.635967191758131e-06	-0.09768478732384782	-0.08230336663836119	-0.2681131987725155	0.02668398901655663	-0.02066313748099773	-0.2916526843806432	-0.04473622769073397	0.0134825765089699	0.2252356538036572	-47.12880622234394	7.560220033614575	-7.384606995946161	9.985643142636071	-552.1468127710526	-70.11857589944117	-0.02324435971595833	1.557503444756027	0.1163964318656112	2.225767187279564	-7.157294325255875	-0.2371982874262718	-1.676874539886694	0.008982049814502537	-5.982553669009131	-5.982553669008307	-0.8963988040633952	0.0183396742338533	-0.9020696047190414	-0.9108841700038605	2.691342305847989e-10	-4.0815423913502e-07	-2.402136374454495e-07	-7.618651831226673e-08	-4.191176380272088e-08	-5.613863861488822e-07	1.774574454080386e-08
1.06	-0.5021462311930212	-0.01424597783164372	0.5507010319733997	1.866706690391871	-0.3378844463284929	0.1523777379128909	-0.4363310903821104	1.610684833605352	1.61068483360519	0.09212645691624755	-0.1745325865365517	0.4298485364449287	0.2599932753608379	-0.05806745667472337	-0.0001894485652818222	0.1703124631655336	-0.4001124327424493	-0.01613445816436173	-0.16424797421207	3.439880452677194e-05	-0.5189539324063303	-0.5189539324063165	-0.05791688855638759	-9.449937360651893e-07	-0.106787587642848	-0.09147172954169304	-0.2678140207987229	0.02661994577665843	-0.02059339853274688	-0.2906217875875272	-0.04430611091882154	0.01369233248931373	0.2250061182847755	-46.88503538485582	7.374638635689981	-7.295849874177097	9.581111322781444	-551.5815827341393	-70.1110166657998	-0.02327818851075507	1.594390351224283	0.1317619487155128	2.212067152005864	-7.1564523791557	-0.2508023084632725	-1.729293124762311	-0.02038567957678158	-5.971374380926539	-5.97137438092604	-0.8481373577341957	-0.03789636121638576	-0.9200235419388462	-0.9357798475148943	-4.872883995198313e-10	-4.487625458967064e-07	-2.672592653326845e-07	-8.312611650690072e-08	-4.79343626837321e-08	-6.088842127187037e-07	1.900466113709904e-08
1.07	-0.5026476853148093	-0.01424105183974939	0.5525143208822063	1.862349052205909	-0.3380573948923333	0.150651272067353	-0.4363309382059118	1.605197431883838	1.605197431883744	0.09150383164735922	-0.1745326495744967	0.4287345496696576	0.2590333231073538	-0.04219560402037648	0.00120412521764456	0.1923127479383821	-0.4713712843187094	-0.01843654350449641	-0.1810151556875138	-8.874034237633446e-06	-0.5784900724810447	-0.5784900724810066	-0.06659074113717721	-8.88457090990776e-06	-0.1160352082873854	-0.1004902167105797	-0.267262357942298	0.02654654764193017	-0.02047940527418114	-0.2895740261887083	-0.04359352709180134	0.01395771988988411	0.2246414647874142	-46.52505872044071	7.142213625881421	-7.196956572327086	9.044541212013399	-550.8139722488665	-70.16568735452344	-0.02331717446752923	1.587745529279424	0.1475587604141944	2.18911266483139	-7.104015711369366	-0.2170593881219536	-1.645946278729892	0.00296534254110993	-5.939286979174111	-5.939286979170737	-0.8744263062411803	0.0180835507889578	-0.930969781550539	-0.88049418033037	-1.283524947392577e-09	-4.891549422831814e-07	-2.941855719267072e-07	-8.989011611718499e-08	-5.395664975576289e-08	-6.560624135194619e-07	2.026465166644648e-08
